<svg xmlns="http://www.w3.org/2000/svg" aria-hidden="true" style="width:0;height:0;position:absolute;overflow:hidden"><defs><symbol id="icon-done" viewBox="0 0 24 24" fill="none"><path d="M12 2.85a9.15 9.15 0 1 1 0 18.3 9.15 9.15 0 0 1 0-18.3Z" stroke="#3a6ee1" stroke-width="1.699"/><path d="m10.183 13.045.511.511a.723.723 0 0 0 1.023 0L14.273 11" stroke="#04cb64" stroke-width="1.7" stroke-linecap="round"/></symbol><symbol id="icon-communication" viewBox="0 0 24 24" fill="none"><path d="m13.132 11.313-.393-.58.393.58Zm-8.145-.97-.673.192.673-.192ZM4.448 8.46l-.673.192.673-.192Zm-2.109.565.68-.17-.68.17Zm1.56 6.238.679-.17-.68.17ZM13.745 21a.7.7 0 1 0 1.4 0h-1.4Zm1.4-2.667a.7.7 0 1 0-1.4 0h1.4ZM18.5 10v-.7a.7.7 0 0 0-.388.118L18.5 10Zm-3 0h.7a.7.7 0 0 0-.7-.7v.7Zm0 2h-.7a.7.7 0 0 0 1.088.582L15.5 12Zm-4.611-.7a3.3 3.3 0 0 1-3.3-3.3h-1.4a4.7 4.7 0 0 0 4.7 4.7v-1.4ZM7.589 8a3.3 3.3 0 0 1 3.3-3.3V3.3a4.7 4.7 0 0 0-4.7 4.7h1.4Zm3.3-3.3a3.3 3.3 0 0 1 3.3 3.3h1.4a4.7 4.7 0 0 0-4.7-4.7v1.4Zm3.3 3.3a3.296 3.296 0 0 1-1.45 2.733l.786 1.159A4.696 4.696 0 0 0 15.589 8h-1.4Zm-1.45 2.733a3.282 3.282 0 0 1-1.85.567v1.4c.976 0 1.884-.298 2.636-.808l-.786-1.159ZM18.256 21v-2.222h-1.4V21h1.4Zm-5.59-7.811H9.689v1.4h2.979v-1.4ZM5.66 10.15l-.538-1.885-1.347.385.539 1.884 1.346-.384Zm-4-.958 1.56 6.239 1.358-.34-1.56-6.238-1.358.34Zm1.56 6.239a2.408 2.408 0 0 0 2.336 1.824v-1.4c-.463 0-.866-.315-.978-.764l-1.358.34Zm.179-8.465A1.792 1.792 0 0 0 1.66 9.193l1.358-.34a.392.392 0 0 1 .38-.486v-1.4Zm1.723 1.3c-.22-.77-.923-1.3-1.723-1.3v1.4c.175 0 .328.116.376.284l1.347-.385Zm4.566 4.922A4.189 4.189 0 0 1 5.66 10.15l-1.346.384a5.589 5.589 0 0 0 5.374 4.054v-1.4Zm8.568 5.589a5.589 5.589 0 0 0-5.59-5.59v1.4a4.189 4.189 0 0 1 4.19 4.19h1.4ZM15.145 21v-2.667h-1.4V21h1.4ZM14.5 3.7h5V2.3h-5v1.4ZM20.8 5v3h1.4V5h-1.4Zm-1.3 4.3h-1v1.4h1V9.3Zm-4 0H14v1.4h1.5V9.3Zm2.612.118-3 2 .776 1.164 3-2-.776-1.164ZM16.2 12v-2h-1.4v2h1.4Zm4.6-4a1.3 1.3 0 0 1-1.3 1.3v1.4A2.7 2.7 0 0 0 22.2 8h-1.4Zm-1.3-4.3A1.3 1.3 0 0 1 20.8 5h1.4a2.7 2.7 0 0 0-2.7-2.7v1.4Zm-5-1.4a2.7 2.7 0 0 0-2.502 1.684l1.297.527A1.3 1.3 0 0 1 14.5 3.7V2.3Z" fill="#3a6ee1"/><circle cx="16.5" cy="6.5" fill="#3a6ee1" r=".5"/><circle cx="18.5" cy="6.5" fill="#3a6ee1" r=".5"/></symbol><symbol id="icon-agile" viewBox="0 0 24 24" fill="none"><path d="M14.5 16.5h1.615c.868 0 1.68-.425 2.173-1.139l3.343-4.829a1.093 1.093 0 0 0-1.704-1.36l-2.654 2.894a3.796 3.796 0 0 1-4.209.96l-3.624-1.45a2.95 2.95 0 0 0-2.73.284l-3.838 2.558a1.188 1.188 0 0 0 1.19 2.05l3.186-1.592c.62-.31 1.298.305 1.049.953L6.5 20.5M7 4H4m2 3H4m14-.5a4 4 0 1 1-8 0 4 4 0 0 1 8 0Z" stroke="#04cb64" stroke-linecap="round" stroke-linejoin="round" stroke-width="1.4"/></symbol><symbol id="icon-client" viewBox="0 0 24 24" fill="none"><path d="M4 21v-2.5A5.5 5.5 0 0 1 9.5 13h4M8 21v-3m8-11.5a4 4 0 1 1-8 0 4 4 0 0 1 8 0Zm1.5 6.5a2.5 2.5 0 1 0-3.902 3.123L17.5 21l3.901-4.877A2.5 2.5 0 1 0 17.5 13Z" stroke="#3293b2" stroke-linecap="round" stroke-linejoin="round" stroke-width="1.4"/></symbol></defs></svg>