<svg xmlns="http://www.w3.org/2000/svg" aria-hidden="true" style="position:absolute;width:0;height:0;overflow:hidden">
  <defs>
    <symbol id="icon-done" viewBox="0 0 24 24" fill="none">
      <path d="M12.0001 2.84955C17.0538 2.84955 21.1506 6.94636 21.1506 12C21.1506 17.0537 17.0538 21.1505 12.0001 21.1505C6.94642 21.1505 2.84961 17.0537 2.84961 12C2.84961 6.94636 6.94642 2.84955 12.0001 2.84955Z" stroke="#3a6ee1" stroke-width="1.69904"/>
      <path d="M10.1831 13.0449L10.6943 13.5561C10.9767 13.8384 11.4344 13.8384 11.7168 13.5561L14.2729 11" stroke="#04cb64" stroke-width="1.7" stroke-linecap="round"/>
    </symbol>
    <symbol id="icon-communication" viewBox="0 0 24 24" fill="none">
      <path d="M13.1318 11.3125L12.7388 10.7333L12.7388 10.7333L13.1318 11.3125ZM4.98688 10.3431L4.31382 10.5354L4.31382 10.5354L4.98688 10.3431ZM4.44847 8.45868L3.77541 8.65098L3.77541 8.65098L4.44847 8.45868ZM2.33917 9.0235L3.01827 8.85373L3.01827 8.85372L2.33917 9.0235ZM3.89881 15.262L4.57791 15.0923L4.57791 15.0923L3.89881 15.262ZM13.7445 21C13.7445 21.3866 14.0579 21.7 14.4445 21.7C14.8311 21.7 15.1445 21.3866 15.1445 21H13.7445ZM15.1445 18.3333C15.1445 17.9467 14.8311 17.6333 14.4445 17.6333C14.0579 17.6333 13.7445 17.9467 13.7445 18.3333H15.1445ZM18.5 10V9.3C18.3618 9.3 18.2267 9.34091 18.1117 9.41756L18.5 10ZM15.5 10H16.2C16.2 9.6134 15.8866 9.3 15.5 9.3V10ZM15.5 12H14.8C14.8 12.2582 14.9421 12.4954 15.1697 12.6172C15.3973 12.739 15.6735 12.7256 15.8883 12.5824L15.5 12ZM10.889 11.3C9.06642 11.3 7.58896 9.82255 7.58896 8.00001H6.18896C6.18896 10.5958 8.29322 12.7 10.889 12.7V11.3ZM7.58896 8.00001C7.58896 6.17746 9.06642 4.7 10.889 4.7V3.3C8.29322 3.3 6.18896 5.40427 6.18896 8.00001H7.58896ZM10.889 4.7C12.7115 4.7 14.189 6.17746 14.189 8.00001H15.589C15.589 5.40427 13.4847 3.3 10.889 3.3V4.7ZM14.189 8.00001C14.189 9.13616 13.6154 10.1386 12.7388 10.7333L13.5248 11.8918C14.769 11.0477 15.589 9.61973 15.589 8.00001H14.189ZM12.7388 10.7333C12.2115 11.091 11.5757 11.3 10.889 11.3V12.7C11.8647 12.7 12.7728 12.4019 13.5248 11.8918L12.7388 10.7333ZM18.2555 21V18.7778H16.8555V21H18.2555ZM12.6666 13.1889H9.68766V14.5889H12.6666V13.1889ZM5.65995 10.1508L5.12154 8.26637L3.77541 8.65098L4.31382 10.5354L5.65995 10.1508ZM1.66007 9.19328L3.21971 15.4318L4.57791 15.0923L3.01827 8.85373L1.66007 9.19328ZM3.21971 15.4318C3.48767 16.5037 4.45071 17.2556 5.55553 17.2556V15.8556C5.09312 15.8556 4.69006 15.5409 4.57791 15.0923L3.21971 15.4318ZM3.39853 6.9667C2.23273 6.9667 1.37732 8.06229 1.66007 9.19328L3.01827 8.85372C2.95643 8.60634 3.14353 8.3667 3.39853 8.3667V6.9667ZM5.12154 8.26637C4.90174 7.49708 4.1986 6.9667 3.39853 6.9667V8.3667C3.57353 8.3667 3.72733 8.48271 3.77541 8.65098L5.12154 8.26637ZM9.68766 13.1889C7.81741 13.1889 6.17375 11.9491 5.65995 10.1508L4.31382 10.5354C4.99934 12.9347 7.19234 14.5889 9.68766 14.5889V13.1889ZM18.2555 18.7778C18.2555 15.6911 15.7533 13.1889 12.6666 13.1889V14.5889C14.9801 14.5889 16.8555 16.4643 16.8555 18.7778H18.2555ZM15.1445 21V18.3333H13.7445V21H15.1445ZM14.5 3.7H19.5V2.3H14.5V3.7ZM20.8 5V8H22.2V5H20.8ZM19.5 9.3H18.5V10.7H19.5V9.3ZM15.5 9.3H14V10.7H15.5V9.3ZM18.1117 9.41756L15.1117 11.4176L15.8883 12.5824L18.8883 10.5824L18.1117 9.41756ZM16.2 12V10H14.8V12H16.2ZM20.8 8C20.8 8.71797 20.218 9.3 19.5 9.3V10.7C20.9912 10.7 22.2 9.49117 22.2 8H20.8ZM19.5 3.7C20.218 3.7 20.8 4.28203 20.8 5H22.2C22.2 3.50883 20.9912 2.3 19.5 2.3V3.7ZM14.5 2.3C13.3671 2.3 12.3988 2.99751 11.9979 3.98386L13.2949 4.51098C13.4887 4.03415 13.9562 3.7 14.5 3.7V2.3Z" fill="#3a6ee1"/><circle cx="16.5" cy="6.5" fill="#3a6ee1" r="0.5"/><circle cx="18.5" cy="6.5" fill="#3a6ee1" r="0.5"/>
    </symbol>
    <symbol id="icon-agile" viewBox="0 0 24 24" fill="none">
      <path d="M14.5 16.5H16.1152C16.9825 16.5 17.7946 16.0745 18.2883 15.3614L21.6315 10.5323C21.8588 10.204 21.889 9.77803 21.7105 9.42094C21.3678 8.73545 20.4444 8.60613 19.9265 9.17109L17.2727 12.0661C16.2059 13.23 14.5301 13.612 13.0643 13.0257L9.44043 11.5762C8.53873 11.2155 7.51727 11.3218 6.70922 11.8605L2.87237 14.4184C2.37401 14.7507 2.20104 15.402 2.4689 15.9377C2.76223 16.5244 3.47562 16.7622 4.06229 16.4689L7.24772 14.8762C7.86821 14.5659 8.54577 15.1811 8.29674 15.8286L6.50003 20.5M7.00003 4H4.00003M6.00003 7H4.00003M18 6.5C18 8.70914 16.2092 10.5 14 10.5C11.7909 10.5 10 8.70914 10 6.5C10 4.29086 11.7909 2.5 14 2.5C16.2092 2.5 18 4.29086 18 6.5Z" stroke="#04cb64" stroke-linecap="round" stroke-linejoin="round" stroke-width="1.4"/>
    </symbol>
    <symbol id="icon-client" viewBox="0 0 24 24" fill="none">
      <path d="M4 21V18.5C4 15.4624 6.46243 13 9.5 13H13.5M8 21V18M16 6.5C16 8.70914 14.2091 10.5 12 10.5C9.79086 10.5 8 8.70914 8 6.5C8 4.29086 9.79086 2.5 12 2.5C14.2091 2.5 16 4.29086 16 6.5ZM17.5 12.9998C17.0439 12.3927 16.3178 12 15.5 12C14.1193 12 13 13.1193 13 14.5C13 15.1195 13.2253 15.6864 13.5985 16.1231L17.5 21L21.4015 16.1231C21.7747 15.6864 22 15.1195 22 14.5C22 13.1193 20.8807 12 19.5 12C18.6822 12 17.9561 12.3927 17.5 12.9998Z" stroke="#3293b2" stroke-linecap="round" stroke-linejoin="round" stroke-width="1.4"/>
    </symbol>
  </defs>
</svg>